# xmcd CD database file
#
# Track frame offsets:
#	150
#	16195
#	33600
#	53397
#	68862
#	86777
#	104440
#	123700
#	144992
#	159780
#	178005
#
# Disc length: 2642 seconds
#
# Revision: 1
# Processed by: cddbd v1.5.2PL0 Copyright (c) Steve Scherf et al.
# Submitted via: CDex 1.51
#
DISCID=8b0a500b
DTITLE=Sierra Swan - Ladyland
DYEAR=2006
DGENRE=Pop
TTITLE0=Copper Red
TTITLE1=Don't Say
TTITLE2=Get Down to it
TTITLE3=Dr. Loveboy
TTITLE4=The Ladder
TTITLE5=Ladyland
TTITLE6=Trouble Is
TTITLE7=Lucky Scar
TTITLE8=Shakedown
TTITLE9=Just Tell Me
TTITLE10=Mother
EXTD=YEAR: 2006
EXTT0=
EXTT1=
EXTT2=
EXTT3=
EXTT4=
EXTT5=
EXTT6=
EXTT7=
EXTT8=
EXTT9=
EXTT10=
PLAYORDER=
